# Blender v2.69 (sub 0) OBJ File: ''
# www.blender.org
o Cube
v 1.000000 -1.000000 -1.000000
v 1.000000 -1.000000 1.000000
v -1.000000 -1.000000 1.000000
v -1.000000 -1.000000 -1.000000
v 1.000000 1.000000 -0.999999
v 0.999999 1.000000 1.000001
v -1.000000 1.000000 1.000000
v -1.000000 1.000000 -1.000000
vt 0.619300 0.734717
vt 0.619300 0.973318
vt 0.380700 0.734717
vt 0.619300 0.496116
vt 0.380699 0.496116
vt 0.619300 0.257514
vt 0.857902 0.734717
vt 0.619300 0.018913
vt 0.380699 0.018913
vt 0.380699 0.973318
vt 0.142098 0.973317
vt 0.380699 0.257515
vt 0.857902 0.973318
vt 0.142098 0.734716
vn 0.000000 -1.000000 0.000000
vn 0.000000 1.000000 0.000000
vn 1.000000 -0.000000 0.000000
vn 0.000000 -0.000000 1.000000
vn -1.000000 -0.000000 -0.000000
vn 0.000000 0.000000 -1.000000
vn 1.000000 0.000000 0.000001
s off
f 1/1/1 2/2/1 4/3/1
f 5/4/2 8/5/2 6/6/2
f 1/1/3 5/7/3 2/2/3
f 2/8/4 6/6/4 3/9/4
f 3/10/5 7/11/5 4/3/5
f 5/4/6 1/1/6 8/5/6
f 2/2/1 3/10/1 4/3/1
f 8/5/2 7/12/2 6/6/2
f 5/7/7 6/13/7 2/2/7
f 6/6/4 7/12/4 3/9/4
f 7/11/5 8/14/5 4/3/5
f 1/1/6 4/3/6 8/5/6
