# Blender v2.69 (sub 0) OBJ File: 'smallcube.blend'
# www.blender.org
o Cube_Cube.001
v -0.125000 -0.125000 0.125000
v 0.125000 -0.125000 -0.125000
v 0.125000 -0.125000 0.125000
v -0.125000 0.125000 0.125000
v 0.125000 0.125000 -0.125000
v 0.125000 0.125000 0.125000
vn 1.000000 0.000000 0.000000
vn 0.000000 0.000000 1.000000
vn 0.000000 -1.000000 0.000000
vn 0.000000 1.000000 0.000000
vn -0.707107 0.000000 -0.707107
s off
f 5//1 6//1 2//1
f 3//2 6//2 1//2
f 3//3 1//3 2//3
f 6//4 5//4 4//4
f 2//5 1//5 5//5
f 6//1 3//1 2//1
f 6//2 4//2 1//2
f 1//5 4//5 5//5
