# Blender v2.69 (sub 0) OBJ File: 'smallcube.blend'
# www.blender.org
o Cube_Cube.005
v 0.125000 0.125000 -0.125000
v 0.125000 0.125000 0.125000
v 0.125000 -0.125000 -0.125000
v 0.125000 -0.125000 0.125000
v -0.125000 -0.125000 0.125000
v -0.125000 0.125000 0.125000
vt 0.554090 0.184746
vt 0.369418 0.369418
vt 0.369418 0.000074
vt 0.184746 0.554089
vt 0.369418 0.738761
vt 0.000075 0.738760
vt 0.554089 0.554089
vt 0.000074 0.999925
vt 0.184746 0.184746
vt 0.369417 0.999926
vn 1.000000 0.000000 0.000000
vn 0.000000 -0.000000 1.000000
vn 0.000000 -1.000000 -0.000000
vn 0.000000 1.000000 0.000000
vn -0.707107 0.000000 -0.707107
s off
f 1/1/1 2/2/1 3/3/1
f 4/4/2 2/2/2 5/5/2
f 4/4/3 5/5/3 3/6/3
f 2/2/4 1/1/4 6/7/4
f 5/5/5 1/8/5 3/6/5
f 2/2/1 4/9/1 3/3/1
f 2/2/2 6/7/2 5/5/2
f 6/10/5 1/8/5 5/5/5
