# Blender v2.69 (sub 0) OBJ File: 'smallcube.blend'
# www.blender.org
o Cube_Cube.006
v -0.125000 -0.125000 -0.125000
v -0.125000 -0.125000 -0.000000
v -0.125000 0.125000 -0.125000
v 0.000000 -0.125000 -0.125000
v 0.000000 0.125000 -0.125000
v 0.000000 -0.125000 -0.000000
v 0.000000 0.125000 0.000000
v -0.125000 0.125000 0.000000
vt 0.499999 0.166729
vt 0.499999 0.000093
vt 0.833271 0.166727
vt 0.333363 0.166728
vt 0.000091 0.166727
vt 0.333363 0.000093
vt 0.333361 0.500000
vt 0.499997 0.500001
vt 0.333359 0.666635
vt 0.333353 0.999906
vt 0.499989 0.999909
vt 0.833271 0.000091
vt 0.000092 0.000091
vt 0.499994 0.666638
vn -1.000000 0.000000 0.000000
vn 1.000000 0.000000 0.000000
vn 0.000000 -1.000000 -0.000000
vn 0.000000 1.000000 0.000000
vn 0.000000 -0.000000 1.000000
vn 0.000000 0.000000 -1.000000
s off
f 1/1/1 2/2/1 3/3/1
f 4/4/2 5/5/2 6/6/2
f 1/1/3 4/4/3 2/2/3
f 5/7/4 3/8/4 7/9/4
f 6/10/5 7/9/5 2/11/5
f 1/1/6 3/8/6 4/4/6
f 2/2/1 8/12/1 3/3/1
f 5/5/2 7/13/2 6/6/2
f 4/4/3 6/6/3 2/2/3
f 3/8/4 8/14/4 7/9/4
f 7/9/5 8/14/5 2/11/5
f 3/8/6 5/7/6 4/4/6
