# Blender v2.69 (sub 0) OBJ File: 'smallcubeirregular.blend'
# www.blender.org
o Cube_Cube.001
v -0.122238 0.128064 0.122408
v -0.114388 0.114496 -0.080858
v -0.125000 -0.125000 0.125000
v 0.108697 0.130755 -0.085756
v -0.096667 -0.094464 -0.090146
v 0.122915 0.124632 0.112720
v 0.122312 -0.078895 -0.112036
v 0.125000 -0.125000 0.125000
v 0.000000 0.125000 0.125000
v 0.060376 0.127450 0.120883
v -0.006356 0.132866 0.005794
v 0.000000 -0.000000 0.125000
v 0.097563 0.132363 0.122308
v 0.091824 0.128978 -0.058074
v -0.117739 -0.079759 0.124801
v 0.103676 -0.103676 0.125000
v -0.130497 0.121112 -0.042544
v 0.117462 0.127537 0.117762
v 0.105288 0.130827 -0.068162
v -0.125000 -0.103676 0.125000
v 0.114338 -0.114338 0.125000
v -0.124760 0.125742 -0.072871
v 0.125179 0.121748 0.096727
v 0.124582 0.122481 0.097087
v 0.124582 0.122481 0.097087
v 0.124582 0.122481 0.097087
v 0.126079 0.124350 -0.007537
v 0.126618 0.124026 0.051194
v 0.116252 0.128656 -0.069666
v 0.126888 0.123863 0.080560
v 0.127023 0.123782 0.095243
v 0.126753 0.123944 0.065877
v 0.127090 0.123741 0.102584
v 0.126685 0.123985 0.058536
v 0.126955 0.123822 0.087901
v 0.126820 0.123904 0.073218
v 0.124379 0.124795 0.107116
v 0.126652 0.124005 0.054865
v 0.126921 0.123843 0.084230
v 0.126854 0.123883 0.076889
v 0.127056 0.123762 0.098913
v 0.126719 0.123965 0.062206
v 0.126989 0.123802 0.091572
v 0.126787 0.123924 0.069548
v 0.111215 0.128141 0.119596
v 0.104902 0.130577 0.119735
v 0.114339 0.127839 0.118679
v 0.080095 0.129735 0.121061
v 0.071266 0.126841 0.124327
v 0.088797 0.130522 0.122981
v -0.062500 0.125000 0.125000
v -0.093750 0.125000 0.125000
v -0.031250 0.125000 0.125000
v -0.109375 0.125000 0.125000
v -0.015625 0.125000 0.125000
v -0.078125 0.125000 0.125000
v -0.046875 0.125000 0.125000
v -0.117188 0.125000 0.125000
v -0.007812 0.125000 0.125000
v -0.070312 0.125000 0.125000
v -0.054688 0.125000 0.125000
v -0.101562 0.125000 0.125000
v -0.023438 0.125000 0.125000
v -0.085938 0.125000 0.125000
v -0.039062 0.125000 0.125000
v -0.125000 0.125000 0.021324
v -0.124800 0.124786 0.074087
v -0.125000 0.125000 -0.030515
v -0.125000 0.125000 0.099081
v -0.125000 0.125000 -0.056434
v -0.125000 0.125000 0.047243
v -0.125000 0.125000 -0.004596
v -0.125000 0.125000 0.112040
v -0.125000 0.125000 -0.069393
v -0.125000 0.125000 0.034283
v -0.125000 0.125000 0.008364
v -0.125000 0.125000 0.086121
v -0.125000 0.125000 -0.043474
v -0.121500 0.123126 0.063892
v -0.125000 0.125000 -0.017555
v -0.124437 0.125585 0.118071
v -0.125000 0.125000 -0.075873
v -0.125000 0.125000 0.027803
v -0.125000 0.125000 0.014844
v -0.119007 0.126744 0.082428
v -0.125000 0.125000 -0.036994
v -0.125000 0.125000 0.066682
v -0.125000 0.125000 -0.024035
v -0.125000 0.125000 0.105561
v -0.125000 0.125000 -0.062914
v -0.125000 0.125000 0.040763
v -0.125000 0.125000 0.001884
v -0.125000 0.125000 0.092601
v -0.125000 0.125000 -0.049954
v -0.124882 0.123793 0.048833
v -0.125000 0.125000 -0.011075
v 0.014060 0.124952 -0.082811
vt 0.250044 0.437508
vt 0.250044 0.499997
vt 0.000088 0.250038
vt 0.999913 0.749953
vt 0.874935 0.749953
vt 0.999913 0.499998
vt 0.500001 0.499998
vt 0.500001 0.437509
vt 0.749957 0.499998
vt 0.812447 0.000087
vt 0.874936 0.000087
vt 0.874936 0.125065
vt 0.999913 0.250042
vt 0.749958 0.250042
vt 0.375023 0.375019
vt 0.250045 0.250040
vt 0.437512 0.250041
vt 0.000087 0.499995
vt 0.749958 0.749953
vt 0.500002 0.250041
vt 0.999913 0.187554
vt 0.250045 0.269568
vt 0.250045 0.277379
vt 0.250045 0.273473
vt 0.812447 0.187553
vt 0.781202 0.000087
vt 0.437512 0.437508
vt 0.250045 0.289096
vt 0.250045 0.281285
vt 0.250045 0.285190
vt 0.999913 0.000087
vt 0.999913 0.125065
vt 0.250044 0.375018
vt 0.468756 0.468753
vt 0.773391 0.000087
vt 0.777297 0.000087
vt 0.480474 0.250041
vt 0.472663 0.250041
vt 0.476568 0.250041
vt 0.125067 0.250039
vt 0.781202 0.218798
vt 0.375022 0.499997
vt 0.749958 0.000087
vt 0.765580 0.000087
vt 0.062577 0.250039
vt 0.500001 0.375019
vt 0.500001 0.312530
vt 0.500001 0.308625
vt 0.500001 0.304719
vt 0.500001 0.300814
vt 0.500001 0.296908
vt 0.500001 0.293003
vt 0.500001 0.289097
vt 0.500001 0.285191
vt 0.500001 0.281286
vt 0.500001 0.277380
vt 0.500001 0.273475
vt 0.500002 0.253947
vt 0.500001 0.269569
vt 0.500002 0.257852
vt 0.500001 0.265664
vt 0.500002 0.261758
vt 0.882747 0.000087
vt 0.890558 0.000087
vt 0.898369 0.000087
vt 0.906180 0.000087
vt 0.913991 0.000087
vt 0.921802 0.000087
vt 0.929613 0.000087
vt 0.937425 0.000087
vt 0.945236 0.000087
vt 0.953047 0.000087
vt 0.960858 0.000087
vt 0.968669 0.000087
vt 0.976480 0.000087
vt 0.984291 0.000087
vt 0.992102 0.000087
vt 0.257856 0.250040
vt 0.265667 0.250040
vt 0.273478 0.250040
vt 0.281290 0.250040
vt 0.289101 0.250040
vt 0.296912 0.250040
vt 0.304723 0.250040
vt 0.312534 0.250040
vt 0.320345 0.250040
vt 0.328156 0.250040
vt 0.335968 0.250040
vt 0.343779 0.250040
vt 0.351590 0.250041
vt 0.359401 0.250041
vt 0.367212 0.250041
vt 0.375023 0.250041
vt 0.250045 0.293001
vt 0.250045 0.300812
vt 0.250045 0.296907
vt 0.250045 0.304718
vt 0.250045 0.308624
vt 0.250045 0.253946
vt 0.250045 0.261757
vt 0.250045 0.257851
vt 0.250045 0.265662
vt 0.250045 0.312529
vt 0.250045 0.316435
vt 0.250045 0.320340
vt 0.250045 0.324246
vt 0.250045 0.328152
vt 0.250045 0.332057
vt 0.250045 0.335963
vt 0.250045 0.339868
vt 0.250045 0.343774
vt 0.250045 0.347679
vt 0.250045 0.351585
vt 0.250044 0.355491
vt 0.250044 0.359396
vt 0.250044 0.363302
vt 0.250044 0.367207
vt 0.250044 0.371113
vt 0.789014 0.000087
vt 0.796825 0.000087
vt 0.804636 0.000087
vt 0.453135 0.250041
vt 0.445324 0.250041
vt 0.460946 0.250041
vt 0.468757 0.250041
vt 0.769486 0.000087
vt 0.484379 0.250041
vn -0.787056 -0.381683 -0.484624
vn -0.018676 0.042815 -0.998909
vn 0.905111 0.110254 -0.410630
vn 0.068025 -0.000000 0.997684
vn 0.000000 -0.990077 -0.140524
vn 0.003735 0.998987 0.044843
vn -0.986981 -0.077436 -0.140968
vn -0.107010 0.116819 -0.987371
vn 0.999921 0.007867 -0.009808
vn 0.000000 -0.000000 1.000000
vn 0.050574 -0.980240 -0.191235
vn -0.279403 0.960174 0.000000
vn 0.011705 0.011705 0.999863
vn 0.050905 0.998551 0.017472
vn -0.479529 -0.877439 -0.012350
vn -0.009351 0.011312 0.999892
vn -0.024854 0.988933 0.146266
vn 0.340991 0.862506 0.373909
vn 0.269819 0.659381 0.701722
vn -0.946563 -0.239796 -0.215675
vn 0.000365 0.008197 0.999966
vn -0.061699 0.997966 -0.016022
vn 0.690038 0.041307 0.722594
vn 0.198660 0.979461 0.034495
vn -0.999999 -0.000001 -0.001214
vn -0.034163 0.050604 -0.998134
vn 0.986585 0.059813 -0.151894
vn 0.999862 -0.013769 -0.009258
vn 0.999862 -0.013765 -0.009257
vn 0.999862 -0.013775 -0.009257
vn 0.999862 -0.013770 -0.009257
vn 0.999862 -0.013765 -0.009261
vn 0.935093 -0.263945 0.236504
vn 0.645242 -0.562617 0.516841
vn -0.621963 -0.583096 0.522648
vn 0.008515 0.653954 0.756486
vn 0.000000 0.859330 0.511422
vn 0.000000 0.859374 0.511348
vn 0.000000 0.859352 0.511385
vn 0.000000 0.859341 0.511403
vn -0.043991 0.990806 -0.127935
vn 0.479529 0.877439 0.012351
vn -0.069278 0.980837 -0.182096
vn 0.995294 0.096906 0.000000
vn 0.995295 0.096891 0.000000
vn -0.059945 0.996541 0.057549
vn -0.983402 0.149281 0.103125
vn -0.720260 0.693704 0.000000
vn -0.279401 0.960174 0.000000
vn -0.279400 0.960175 0.000000
vn -0.372555 0.927629 -0.026589
vn -0.279402 0.960174 0.000000
vn -0.279414 0.960171 0.000000
vn -0.279389 0.960178 0.000000
vn -0.673566 0.734924 -0.078710
vn -0.080947 0.995938 -0.039432
vn -0.064788 0.997778 -0.015533
vn -0.066151 0.997810 0.000000
vn -0.066152 0.997810 0.000005
vn -0.066150 0.997810 0.000000
vn 0.577416 -0.816450 0.000000
vn 0.137645 -0.983867 -0.114277
vn -0.163961 0.915286 0.367923
vn -0.288764 0.167243 0.942680
vn 0.085384 -0.042691 0.995433
vn 0.085380 -0.042691 0.995434
vn -0.104963 0.867946 0.485440
vn -0.163961 0.915289 0.367918
vn -0.147772 0.988924 -0.013856
vn -0.115018 0.993294 -0.011730
vn -0.995294 -0.096902 0.000000
vn -0.995295 -0.096891 0.000000
vn -0.577416 0.816450 0.000000
vn -0.577413 0.816453 0.000000
vn -0.577413 0.816452 0.000000
vn -0.577412 0.816453 0.000003
vn -0.577412 0.816453 0.000000
vn -0.291720 0.956254 -0.021839
vn -0.427151 -0.904136 0.008945
vn -0.471934 -0.881634 0.000000
vn -0.471925 -0.881639 0.000000
vn -0.888620 -0.013959 0.458432
vn -0.577410 0.816454 0.000000
vn -0.974673 0.103326 0.198333
vn -0.994973 -0.029314 0.095761
vn -0.999372 -0.035439 0.000000
vn -0.999372 -0.035438 0.000000
vn -0.994219 -0.047361 -0.096367
vn -0.974095 0.048269 0.220929
vn -0.999425 -0.033711 0.003650
vn -0.999372 -0.035437 0.000000
vn -0.999372 -0.035442 0.000000
vn -0.001006 -0.001006 0.999999
vn -0.024614 0.988626 0.148366
vn 0.199692 0.016344 0.979722
vn 0.029517 0.029517 0.999128
vn 0.282858 0.013159 0.959071
vn 0.282854 0.013159 0.959073
vn -0.117420 0.992761 0.025257
vn 0.269822 0.659387 0.701716
vn 0.227910 0.973348 -0.025517
vn 0.231350 0.972529 -0.025762
vn -0.905577 0.277586 0.320744
vn -0.001006 -0.001007 0.999999
vn 0.003803 0.581370 -0.813630
vn -0.079309 0.992222 0.095950
vn 0.029518 0.029517 0.999128
vn 0.584392 0.792232 0.175656
vn 0.364940 0.931029 0.001797
vn 0.376809 0.926270 0.006264
vn 0.393547 0.919303 0.001470
vn 0.369150 0.929368 0.001759
vn 0.352263 0.935878 -0.006504
vn 0.196911 0.980203 0.020668
vn 0.290451 0.956886 0.002623
vn 0.290439 0.956890 0.002628
vn 0.290452 0.956886 0.002628
vn 0.290456 0.956885 0.002628
vn 0.290430 0.956893 0.002622
vn 0.290432 0.956892 0.002628
vn 0.290456 0.956885 0.002633
vn 0.290446 0.956888 0.002622
vn 0.290435 0.956891 0.002621
vn 0.290434 0.956891 0.002634
vn 0.290454 0.956885 0.002621
s off
f 22/1/1 2/2/1 3/3/1
f 2/4/2 97/5/2 5/6/2
f 4/7/3 29/8/3 7/9/3
f 10/10/4 9/11/4 12/12/4
f 3/13/5 5/6/5 8/14/5
f 11/15/6 1/16/6 10/17/6
f 2/2/7 5/18/7 3/3/7
f 4/19/8 7/9/8 5/6/8
f 6/20/9 8/14/9 7/9/9
f 20/21/10 3/13/10 8/14/10
f 5/6/11 7/9/11 8/14/11
f 93/22/12 85/23/12 77/24/12
f 16/25/13 13/26/13 12/12/13
f 14/27/14 11/15/14 10/17/14
f 79/28/15 67/29/15 87/30/15
f 1/31/16 15/32/16 12/12/16
f 22/1/17 17/33/17 19/34/17
f 13/26/18 45/35/18 46/36/18
f 47/37/19 46/38/19 45/39/19
f 17/33/20 22/1/20 15/40/20
f 15/32/21 20/21/21 21/41/21
f 97/42/22 19/34/22 4/7/22
f 6/43/23 18/44/23 8/14/23
f 4/7/24 19/34/24 29/8/24
f 20/45/25 22/1/25 3/3/25
f 97/5/26 4/19/26 5/6/26
f 29/8/27 27/46/27 7/9/27
f 27/46/28 28/47/28 7/9/28
f 28/47/29 38/48/29 7/9/29
f 38/48/29 34/49/29 7/9/29
f 34/49/30 42/50/30 7/9/30
f 42/50/29 32/51/29 7/9/29
f 32/51/30 44/52/30 7/9/30
f 44/52/31 36/53/31 7/9/31
f 36/53/29 40/54/29 7/9/29
f 40/54/32 30/55/32 7/9/32
f 30/55/32 39/56/32 7/9/32
f 39/56/31 35/57/31 7/9/31
f 7/9/33 37/58/33 6/20/33
f 35/57/31 43/59/31 7/9/31
f 7/9/34 33/60/34 37/58/34
f 43/59/31 31/61/31 7/9/31
f 31/61/31 41/62/31 7/9/31
f 41/62/31 33/60/31 7/9/31
f 9/11/10 59/63/10 12/12/10
f 59/63/10 55/64/10 12/12/10
f 55/64/10 63/65/10 12/12/10
f 63/65/10 53/66/10 12/12/10
f 53/66/10 65/67/10 12/12/10
f 65/67/10 57/68/10 12/12/10
f 57/68/10 61/69/10 12/12/10
f 61/69/10 51/70/10 12/12/10
f 51/70/10 60/71/10 12/12/10
f 60/71/10 56/72/10 12/12/10
f 56/72/10 64/73/10 12/12/10
f 64/73/10 52/74/10 12/12/10
f 52/74/10 62/75/10 12/12/10
f 62/75/10 54/76/10 12/12/10
f 54/76/10 58/77/10 12/12/10
f 58/77/35 1/31/35 12/12/35
f 1/16/36 58/78/36 10/17/36
f 58/78/37 54/79/37 10/17/37
f 54/79/37 62/80/37 10/17/37
f 62/80/38 52/81/38 10/17/38
f 52/81/37 64/82/37 10/17/37
f 64/82/37 56/83/37 10/17/37
f 56/83/37 60/84/37 10/17/37
f 60/84/39 51/85/39 10/17/39
f 51/85/37 61/86/37 10/17/37
f 61/86/37 57/87/37 10/17/37
f 57/87/39 65/88/39 10/17/39
f 65/88/37 53/89/37 10/17/37
f 53/89/39 63/90/39 10/17/39
f 63/90/37 55/91/37 10/17/37
f 55/91/37 59/92/37 10/17/37
f 59/92/40 9/93/40 10/17/40
f 21/41/10 20/21/10 8/14/10
f 14/27/41 17/33/41 11/15/41
f 67/29/42 79/28/42 87/30/42
f 85/23/43 79/28/43 67/29/43
f 95/94/44 91/95/44 71/96/44
f 95/94/45 75/97/45 91/95/45
f 95/94/45 83/98/45 75/97/45
f 79/28/46 83/98/46 95/94/46
f 85/23/47 83/98/47 79/28/47
f 81/99/48 89/100/48 73/101/48
f 69/102/49 85/23/49 93/22/49
f 89/100/50 85/23/50 69/102/50
f 81/99/51 85/23/51 89/100/51
f 85/23/52 66/103/52 83/98/52
f 85/23/53 84/104/53 66/103/53
f 85/23/54 76/105/54 84/104/54
f 85/23/49 92/106/49 76/105/49
f 85/23/54 72/107/54 92/106/54
f 1/16/55 85/23/55 81/99/55
f 11/15/56 85/23/56 1/16/56
f 11/15/57 72/107/57 85/23/57
f 11/15/58 96/108/58 72/107/58
f 11/15/58 80/109/58 96/108/58
f 11/15/58 88/110/58 80/109/58
f 11/15/58 68/111/58 88/110/58
f 11/15/58 86/112/58 68/111/58
f 11/15/58 78/113/58 86/112/58
f 11/15/59 94/114/59 78/113/59
f 11/15/60 70/115/60 94/114/60
f 11/15/60 90/116/60 70/115/60
f 11/15/60 74/117/60 90/116/60
f 17/33/61 82/118/61 74/117/61
f 11/15/62 17/33/62 74/117/62
f 50/119/63 48/120/63 49/121/63
f 12/12/64 49/121/64 10/10/64
f 13/26/65 50/119/65 12/12/65
f 50/119/66 49/121/66 12/12/66
f 48/122/67 10/17/67 49/123/67
f 50/124/68 13/125/68 48/122/68
f 13/125/69 14/27/69 48/122/69
f 14/27/70 10/17/70 48/122/70
f 91/95/71 95/94/71 71/96/71
f 75/97/72 95/94/72 91/95/72
f 17/33/73 74/117/73 82/118/73
f 17/33/73 90/116/73 74/117/73
f 17/33/74 70/115/74 90/116/74
f 17/33/75 94/114/75 70/115/75
f 17/33/76 78/113/76 94/114/76
f 17/33/77 86/112/77 78/113/77
f 67/29/78 77/24/78 85/23/78
f 79/28/79 77/24/79 67/29/79
f 79/28/80 93/22/80 77/24/80
f 83/98/72 95/94/72 75/97/72
f 79/28/81 69/102/81 93/22/81
f 1/16/82 81/99/82 15/40/82
f 17/33/77 68/111/77 86/112/77
f 17/33/77 88/110/77 68/111/77
f 17/33/83 80/109/83 88/110/83
f 15/40/84 80/109/84 17/33/84
f 81/99/85 73/101/85 15/40/85
f 73/101/86 89/100/86 15/40/86
f 89/100/87 69/102/87 15/40/87
f 69/102/88 79/28/88 15/40/88
f 79/28/89 95/94/89 15/40/89
f 95/94/90 83/98/90 15/40/90
f 83/98/86 66/103/86 15/40/86
f 66/103/87 84/104/87 15/40/87
f 84/104/91 76/105/91 15/40/91
f 76/105/87 92/106/87 15/40/87
f 92/106/86 72/107/86 15/40/86
f 72/107/91 96/108/91 15/40/91
f 96/108/92 80/109/92 15/40/92
f 15/32/93 16/25/93 12/12/93
f 17/33/94 14/27/94 19/34/94
f 16/25/95 45/35/95 13/26/95
f 21/41/96 18/44/96 16/25/96
f 18/44/97 47/126/97 16/25/97
f 47/126/98 45/35/98 16/25/98
f 19/34/99 14/27/99 18/127/99
f 18/127/100 46/38/100 47/37/100
f 14/27/101 13/125/101 46/38/101
f 18/127/102 14/27/102 46/38/102
f 22/1/103 20/45/103 15/40/103
f 16/25/104 15/32/104 21/41/104
f 2/2/105 22/1/105 19/34/105
f 97/42/106 2/2/106 19/34/106
f 18/44/107 21/41/107 8/14/107
f 18/127/108 6/20/108 37/58/108
f 41/62/109 37/58/109 33/60/109
f 18/127/110 37/58/110 41/62/110
f 29/8/111 28/47/111 27/46/111
f 18/127/112 41/62/112 31/61/112
f 19/34/113 18/127/113 31/61/113
f 29/8/114 19/34/114 28/47/114
f 19/34/115 31/61/115 43/59/115
f 28/47/116 19/34/116 38/48/116
f 19/34/117 43/59/117 35/57/117
f 38/48/118 19/34/118 34/49/118
f 19/34/119 35/57/119 39/56/119
f 34/49/120 19/34/120 42/50/120
f 19/34/121 39/56/121 30/55/121
f 42/50/122 19/34/122 32/51/122
f 19/34/123 30/55/123 40/54/123
f 32/51/124 19/34/124 44/52/124
f 19/34/125 40/54/125 36/53/125
f 44/52/120 19/34/120 36/53/120
l 18 23
l 23 24
l 24 25
l 25 26
