# Blender v2.69 (sub 0) OBJ File: ''
# www.blender.org
o Cube
v 0.750577 -0.950706 -1.193646
v 0.750577 -0.950706 0.806354
v -1.249423 -0.950706 0.806353
v -1.249423 -0.950706 -1.193647
v 0.750577 1.049294 -1.193646
v 0.750576 1.049294 0.806354
v -1.249424 1.049294 0.806353
v -1.249423 1.049294 -1.193646
vt 0.623276 0.976926
vt 0.381844 0.976927
vt 0.381843 0.735494
vt 0.623273 0.252629
vt 0.623274 0.494061
vt 0.381841 0.252631
vt 0.623271 0.011197
vt 0.381840 0.011199
vt 0.140411 0.976927
vt 0.381842 0.494063
vt 0.864709 0.976926
vt 0.864709 0.735493
vt 0.623276 0.735494
vt 0.140411 0.735494
vn 0.000000 -1.000000 0.000000
vn 0.000000 1.000000 0.000000
vn 1.000000 -0.000000 0.000000
vn -0.000000 -0.000000 1.000000
vn -1.000000 -0.000000 -0.000000
vn 0.000000 0.000000 -1.000000
vn 1.000000 0.000000 0.000001
s off
f 1/1/1 2/2/1 3/3/1
f 5/4/2 8/5/2 6/6/2
f 1/7/3 5/4/3 2/8/3
f 2/2/4 6/9/4 3/3/4
f 3/3/5 7/10/5 8/5/5
f 5/11/6 1/1/6 8/12/6
f 4/13/1 1/1/1 3/3/1
f 5/4/7 6/6/7 2/8/7
f 1/1/6 4/13/6 8/12/6
f 8/5/2 7/10/2 6/6/2
f 4/13/5 3/3/5 8/5/5
f 6/9/4 7/14/4 3/3/4
