# Blender v2.69 (sub 0) OBJ File: 'halfcubeirregular.blend'
# www.blender.org
o Cube_Cube.001
v -0.112301 -0.124167 -0.118145
v 0.099385 -0.129191 -0.109073
v -0.125000 0.125000 -0.125000
v 0.101356 0.127875 -0.108227
v -0.125000 0.125000 0.000000
v -0.125000 0.000000 -0.125000
v -0.142819 -0.123834 -0.014786
v -0.018317 0.127060 -0.102442
v 0.127163 -0.003010 -0.116451
v 0.002739 -0.126514 -0.095980
v 0.125000 0.125000 0.000000
v 0.112073 -0.123873 -0.006212
v -0.125000 0.000000 0.000000
v 0.125000 0.000000 0.000000
v 0.000000 -0.125000 0.000000
v -0.006626 0.135363 -0.028214
v -0.040892 -0.124750 -0.110751
v -0.138117 -0.133905 -0.064767
v 0.113154 -0.125377 -0.064438
v -0.000905 0.125000 0.000000
v 0.011351 0.001599 -0.029391
v 0.113178 0.126438 -0.054114
v -0.065813 0.130181 -0.014107
v 0.059187 0.130181 -0.014107
v 0.062048 0.125000 0.000000
v -0.062952 0.125000 0.000000
v 0.052048 0.000680 -0.102104
v -0.001883 0.127591 -0.007053
v -0.036476 0.062840 -0.113552
v -0.082092 -0.131153 -0.020457
vt 0.433620 0.741342
vt 0.324901 0.839061
vt 0.303492 0.675511
vt 0.753229 0.163455
vt 0.591821 0.172100
vt 0.585469 0.098781
vt 0.623983 0.568416
vt 0.548439 0.520571
vt 0.634449 0.495722
vt 0.294999 0.131301
vt 0.352571 0.173236
vt 0.270280 0.179852
vt 0.031242 0.000096
vt 0.133287 0.164434
vt 0.000096 0.133288
vt 0.477394 0.341872
vt 0.452853 0.185303
vt 0.297442 0.346305
vt 0.467484 0.504951
vt 0.466704 0.514971
vt 0.385706 0.509146
vt 0.641585 0.978141
vt 0.514207 0.988476
vt 0.560890 0.813690
vt 0.551151 0.500427
vt 0.461922 0.545263
vt 0.382611 0.529108
vt 0.303936 0.510493
vt 0.613468 0.641379
vt 0.450240 0.648742
vt 0.453603 0.990735
vt 0.359552 0.999904
vt 0.916868 0.145649
vt 0.910860 0.072932
vt 0.730913 0.011661
vt 0.906540 0.000096
vt 0.567041 0.042551
vt 0.296994 0.064987
vt 0.385804 0.057323
vt 0.442700 0.067016
vt 0.164434 0.031242
vt 0.625288 0.331183
vt 0.662058 0.809483
vn 0.128256 0.000000 -0.991741
vn 0.994265 -0.104825 0.021179
vn 0.076395 0.997029 0.009798
vn -0.100261 -0.977142 0.187458
vn -1.000000 0.000000 0.000000
vn 0.051752 0.221438 0.973800
vn 0.203998 0.203998 0.957481
vn 0.076768 -0.129097 0.988656
vn 0.208471 -0.206962 0.955880
vn 0.000000 0.938686 0.344773
vn -0.134129 0.004287 -0.990955
vn 0.000000 0.938687 0.344772
vn -0.048062 -0.029437 -0.998410
vn 0.128016 -0.097147 -0.987003
vn 0.322721 0.110212 -0.940055
vn 0.102522 -0.044381 -0.993740
vn 0.976958 0.000000 -0.213430
vn 0.980631 0.007930 -0.195703
vn 0.957983 0.201701 -0.203926
vn 0.955207 0.012032 -0.295694
vn 0.844137 -0.155835 0.512980
vn -0.019302 0.999814 0.000000
vn -0.008174 0.999570 -0.028154
vn 0.104846 0.986365 -0.126848
vn -0.108931 0.989638 -0.093544
vn 0.137661 -0.984019 -0.112941
vn -0.000784 -0.997470 -0.071090
vn 0.082832 -0.996023 -0.032834
vn 0.009735 -0.999935 -0.005853
vn -0.015411 -0.995836 0.089847
vn -0.084716 -0.987590 0.132246
vn 0.002898 -0.999661 0.025892
vn -0.989806 0.142424 0.000000
vn -0.885807 -0.115410 -0.449473
vn -0.993322 0.050681 -0.103650
vn -0.250609 -0.022385 0.967829
vn -0.250377 0.000000 0.968148
vn 0.000000 -0.231694 0.972789
vn -0.220288 -0.220288 0.950235
vn 0.000000 0.000000 1.000000
vn 0.000000 0.938686 0.344774
vn -0.188347 -0.015957 -0.981973
vn -0.186373 0.024963 -0.982162
vn 0.203552 0.110723 -0.972783
s off
f 29/1/1 6/2/1 3/3/1
f 14/4/2 12/5/2 19/6/2
f 22/7/3 24/8/3 11/9/3
f 18/10/4 30/11/4 7/12/4
f 3/13/5 13/14/5 5/15/5
f 21/16/6 15/17/6 12/5/6
f 13/18/7 15/17/7 21/16/7
f 13/18/8 7/12/8 30/11/8
f 13/18/9 21/16/9 20/19/9
f 28/20/10 26/21/10 20/19/10
f 2/22/11 10/23/11 27/24/11
f 24/8/12 28/20/12 25/25/12
f 16/26/10 23/27/10 28/20/10
f 23/27/10 5/28/10 26/21/10
f 4/29/13 27/24/13 8/30/13
f 29/1/1 27/24/1 6/2/1
f 27/24/14 10/23/14 6/2/14
f 10/23/15 17/31/15 6/2/15
f 17/31/16 1/32/16 6/2/16
f 11/33/17 14/4/17 22/34/17
f 14/4/18 19/6/18 22/34/18
f 22/34/19 9/35/19 4/36/19
f 19/6/20 2/37/20 22/34/20
f 2/37/21 9/35/21 22/34/21
f 8/30/22 3/3/22 5/28/22
f 22/7/3 4/29/3 24/8/3
f 4/29/23 8/30/23 24/8/23
f 24/8/24 8/30/24 16/26/24
f 8/30/25 5/28/25 23/27/25
f 16/26/25 8/30/25 23/27/25
f 1/38/26 30/11/26 18/10/26
f 17/39/27 30/11/27 1/38/27
f 17/39/28 15/17/28 30/11/28
f 17/39/29 12/5/29 15/17/29
f 10/40/30 2/37/30 19/6/30
f 17/39/31 10/40/31 12/5/31
f 10/40/32 19/6/32 12/5/32
f 3/13/5 6/41/5 13/14/5
f 13/14/33 6/41/33 7/12/33
f 6/41/34 1/38/34 18/10/34
f 7/12/35 6/41/35 18/10/35
f 21/16/36 12/5/36 14/42/36
f 21/16/37 14/42/37 11/9/37
f 20/19/38 21/16/38 25/25/38
f 21/16/38 11/9/38 25/25/38
f 15/17/39 13/18/39 30/11/39
f 5/28/40 13/18/40 26/21/40
f 13/18/40 20/19/40 26/21/40
f 25/25/41 28/20/41 20/19/41
f 9/43/42 2/22/42 27/24/42
f 4/29/43 9/43/43 27/24/43
f 11/9/41 24/8/41 25/25/41
f 24/8/10 16/26/10 28/20/10
f 28/20/10 23/27/10 26/21/10
f 27/24/44 29/1/44 8/30/44
f 29/1/44 3/3/44 8/30/44
