# Blender v2.69 (sub 0) OBJ File: 'halfCubePrism.blend'
# www.blender.org
o Cube
v 1.000000 -1.000000 -1.000000
v -1.000000 -1.000000 -1.000000
v 1.000000 1.000000 -0.999999
v -1.000000 1.000000 -1.000000
v -1.000000 0.000000 -1.000000
v -0.000000 1.000000 0.000000
v 0.000000 -1.000000 -0.000000
v -0.000000 0.000000 0.000000
v 1.000000 0.958157 -0.999999
vn 0.000000 0.000000 -1.000000
vn 0.000000 1.000000 0.000000
vn -0.707107 -0.000000 0.707107
vn 0.707107 -0.000000 0.707107
vn 0.000000 -1.000000 0.000000
vn 0.707106 0.000000 0.707107
s off
f 1//1 2//1 9//1
f 3//2 4//2 6//2
f 6//3 4//3 8//3
f 7//4 1//4 9//4
f 2//5 1//5 7//5
f 5//1 4//1 3//1
f 2//1 5//1 3//1
f 9//1 2//1 3//1
f 4//3 5//3 8//3
f 5//3 2//3 8//3
f 2//3 7//3 8//3
f 6//6 8//6 3//6
f 8//6 7//6 3//6
f 7//6 9//6 3//6
