# Blender v2.69 (sub 0) OBJ File: 'halfcubeirregular.blend'
# www.blender.org
o Cube_Cube.001
v -0.127035 -0.130183 -0.124344
v 0.099385 -0.129191 -0.109073
v -0.125000 0.125000 -0.125000
v 0.103033 0.123658 -0.114727
v -0.125000 0.125000 0.000000
v -0.125000 0.000000 -0.125000
v -0.142819 -0.123834 -0.014786
v 0.110847 -0.003411 -0.115268
v -0.001630 -0.125529 -0.113720
v 0.125000 0.125000 0.000000
v 0.112073 -0.123873 -0.006212
v -0.125000 0.000000 0.000000
v 0.125000 0.000000 0.000000
v -0.002204 -0.125379 -0.014737
v -0.040892 -0.124750 -0.110751
v -0.138117 -0.133905 -0.064767
v 0.113154 -0.125377 -0.064438
v 0.113178 0.126438 -0.054114
v -0.082035 -0.131014 -0.012020
vt 0.981982 0.083525
vt 0.799395 0.012610
vt 0.972662 0.000099
vt 0.633446 0.573632
vt 0.316672 0.490073
vt 0.651792 0.501614
vt 0.323358 0.091251
vt 0.386979 0.154773
vt 0.307945 0.152436
vt 0.008659 0.000100
vt 0.153449 0.162009
vt 0.000099 0.153450
vt 0.322443 0.322513
vt 0.647481 0.169204
vt 0.657957 0.336362
vt 0.492169 0.159666
vt 0.310845 0.657630
vt 0.617000 0.654490
vt 0.617924 0.993878
vt 0.482234 0.991024
vt 0.630344 0.824725
vt 0.312516 0.999901
vt 0.313462 0.825269
vt 0.429414 0.991534
vt 0.814851 0.170391
vt 0.645429 0.093152
vt 0.985041 0.159070
vt 0.631718 0.033270
vt 0.441247 0.025398
vt 0.321774 0.016913
vt 0.494932 0.022403
vt 0.162009 0.008659
vn 0.983971 0.061217 -0.167494
vn 0.000000 0.999647 0.026557
vn -0.123577 -0.974971 0.184828
vn -1.000000 0.000000 0.000000
vn 0.000000 0.000000 1.000000
vn -0.058165 -0.110106 0.992216
vn -0.073767 -0.042272 0.996379
vn 0.039298 -0.078596 0.996132
vn 0.005886 0.999983 0.000000
vn -0.015836 0.998943 -0.043163
vn 0.043976 -0.053145 -0.997618
vn 0.156313 -0.007423 -0.987680
vn 0.044861 -0.022874 -0.998731
vn -0.076781 -0.082545 -0.993625
vn 0.994265 -0.104825 0.021179
vn 0.976958 0.000000 -0.213430
vn 0.991604 0.040097 -0.122942
vn 0.952071 0.063796 -0.299150
vn 0.988311 -0.095896 -0.118513
vn 0.070586 -0.996296 -0.049108
vn 0.079613 -0.996373 -0.030038
vn 0.069207 -0.997009 -0.034415
vn 0.014089 -0.999826 -0.012224
vn -0.040535 -0.994412 0.097476
vn -0.016666 -0.998983 0.041896
vn -0.011775 -0.999602 0.025618
vn -0.989806 0.142424 0.000000
vn -0.983194 0.014449 -0.181991
vn -0.993322 0.050681 -0.103650
vn 0.039440 -0.078457 0.996137
vn -0.115082 0.000000 0.993356
vn -0.017230 0.003200 -0.999846
vn 0.167029 0.000000 -0.985952
s off
f 18/1/1 8/2/1 4/3/1
f 18/4/2 5/5/2 10/6/2
f 16/7/3 19/8/3 7/9/3
f 3/10/4 12/11/4 5/12/4
f 5/5/5 12/13/5 10/6/5
f 12/13/6 7/9/6 19/8/6
f 11/14/7 13/15/7 14/16/7
f 10/6/8 12/13/8 14/16/8
f 3/17/9 5/5/9 4/18/9
f 18/4/10 4/18/10 5/5/10
f 2/19/11 9/20/11 8/21/11
f 1/22/12 6/23/12 15/24/12
f 4/18/13 9/20/13 3/17/13
f 3/17/14 9/20/14 15/24/14
f 13/25/15 11/14/15 17/26/15
f 10/27/16 13/25/16 18/1/16
f 18/1/17 13/25/17 8/2/17
f 13/25/18 17/26/18 2/28/18
f 8/2/19 13/25/19 2/28/19
f 15/29/20 16/7/20 1/30/20
f 15/29/21 19/8/21 16/7/21
f 15/29/22 14/16/22 19/8/22
f 15/29/23 11/14/23 14/16/23
f 9/31/24 2/28/24 17/26/24
f 15/29/25 9/31/25 17/26/25
f 11/14/26 15/29/26 17/26/26
f 3/10/4 6/32/4 12/11/4
f 12/11/27 6/32/27 7/9/27
f 6/32/28 1/30/28 16/7/28
f 7/9/29 6/32/29 16/7/29
f 14/16/30 12/13/30 19/8/30
f 13/15/31 10/6/31 14/16/31
f 9/20/32 4/18/32 8/21/32
f 6/23/33 3/17/33 15/24/33
