# Blender v2.69 (sub 0) OBJ File: 'halfPrismirregular.blend'
# www.blender.org
o Cube.002
v 0.000000 -0.125000 -0.000000
v 0.000000 -0.125000 0.062500
v -0.125000 -0.125000 0.125000
v -0.117839 0.004746 0.131972
v 0.000299 0.124334 0.006916
v 0.005427 0.125958 0.113278
v 0.106658 0.123835 0.117392
v -0.118270 0.127431 0.118248
v 0.000000 -0.125000 0.125000
v 0.112199 -0.002039 0.125351
v 0.125000 -0.125000 0.125000
v 0.062500 -0.125000 0.125000
v 0.080211 -0.125000 0.080211
v 0.000000 0.000000 0.000000
vt 0.655139 0.387154
vt 0.655138 0.461971
vt 0.505503 0.536788
vt 0.395466 0.426523
vt 0.441030 0.179038
vt 0.313501 0.164986
vt 0.317528 0.042924
vt 0.300208 0.313540
vt 0.000073 0.295376
vt 0.012840 0.147826
vt 0.154179 0.300194
vt 0.999927 0.310110
vt 0.901697 0.424957
vt 0.870296 0.180129
vt 0.804772 0.536787
vt 0.729955 0.536787
vt 0.751156 0.483172
vt 0.655138 0.536788
vt 0.168261 0.026249
vt 0.018454 0.073949
vt 0.024068 0.000073
vn -0.000000 -1.000000 -0.000000
vn -0.705019 0.076797 -0.705019
vn 0.021627 0.999633 -0.016305
vn 0.011271 0.999812 -0.015809
vn 0.000000 -0.053659 0.998559
vn 0.720322 -0.012143 -0.693533
vn -0.684065 0.021045 -0.729117
vn -0.778310 -0.072501 -0.623681
vn 0.041220 0.111219 0.992941
vn 0.107293 0.044073 0.993250
vn -0.039246 0.061334 0.997345
vn -0.055487 0.047783 0.997315
vn 0.000000 -0.002855 0.999996
vn 0.736215 0.017882 -0.676511
vn 0.705093 0.075417 -0.705093
s off
f 1/1/1 2/2/1 3/3/1
f 1/1/2 3/3/2 4/4/2
f 5/5/3 6/6/3 7/7/3
f 6/6/4 5/5/4 8/8/4
f 3/9/5 9/10/5 4/11/5
f 7/12/6 10/13/6 5/14/6
f 11/15/1 12/16/1 13/17/1
f 2/2/1 9/18/1 3/3/1
f 5/5/7 1/1/7 8/8/7
f 1/1/8 4/4/8 8/8/8
f 4/11/9 6/6/9 8/8/9
f 4/11/10 9/10/10 6/6/10
f 6/6/11 10/19/11 7/7/11
f 6/6/12 9/10/12 10/19/12
f 9/10/13 12/20/13 10/19/13
f 12/20/13 11/21/13 10/19/13
f 10/13/14 1/1/14 5/14/14
f 10/13/15 11/15/15 13/17/15
f 1/1/15 10/13/15 13/17/15
f 12/16/1 9/18/1 2/2/1
f 12/16/1 1/1/1 13/17/1
f 2/2/1 1/1/1 12/16/1
l 8 14
