# Blender v2.69 (sub 0) OBJ File: 'halfCubePrism.blend'
# www.blender.org
o Cube
v 1.000000 -1.000000 -1.000000
v 1.000000 -1.000000 1.000000
v -1.000000 -1.000000 -1.000000
v 1.000000 1.000000 -0.999999
v 0.999999 1.000000 1.000001
v -1.000000 1.000000 -1.000000
vn 0.000000 -1.000000 0.000000
vn 0.000000 1.000000 0.000000
vn 1.000000 -0.000000 0.000000
vn 0.000000 0.000000 -1.000000
vn -0.707107 -0.000000 0.707107
vn 1.000000 0.000000 0.000001
s off
f 1//1 2//1 3//1
f 4//2 6//2 5//2
f 1//3 4//3 2//3
f 3//4 6//4 1//4
f 5//5 6//5 2//5
f 4//6 5//6 2//6
f 6//4 4//4 1//4
f 6//5 3//5 2//5
