# Blender v2.69 (sub 0) OBJ File: 'smallcube.blend'
# www.blender.org
o Cube_Cube.001
v -0.125000 -0.125000 -0.125000
v 0.125000 -0.125000 -0.125000
v -0.125000 0.125000 -0.125000
v 0.125000 0.125000 -0.125000
v -0.125000 0.125000 0.000000
v -0.125000 -0.125000 0.000000
v 0.125000 0.125000 0.000000
v 0.125000 -0.125000 0.000000
vn 1.000000 0.000000 0.000000
vn 0.000000 1.000000 0.000000
vn -1.000000 0.000000 0.000000
vn 0.000000 0.000000 -1.000000
vn 0.000000 -1.000000 0.000000
vn 0.000000 0.000000 1.000000
s off
f 8//1 2//1 7//1
f 4//2 3//2 7//2
f 1//3 6//3 3//3
f 1//4 3//4 2//4
f 1//5 2//5 6//5
f 8//6 7//6 6//6
f 2//1 4//1 7//1
f 3//2 5//2 7//2
f 6//3 5//3 3//3
f 3//4 4//4 2//4
f 2//5 8//5 6//5
f 7//6 5//6 6//6
