# Blender v2.69 (sub 0) OBJ File: 'prismirregular.blend'
# www.blender.org
o Cube_Cube.001
v -0.106629 -0.141892 0.103304
v 0.125000 -0.125000 -0.125000
v 0.122029 -0.127985 0.121409
v -0.125000 0.125000 0.125000
v 0.125000 0.125000 -0.125000
v 0.125000 0.125000 0.125000
v -0.017506 -0.130746 0.109410
v 0.000000 0.125000 0.125000
v 0.069156 -0.127056 0.117789
v 0.126637 -0.126594 -0.063574
v 0.125000 -0.125000 0.062500
v 0.125000 -0.125000 0.093750
v 0.123191 -0.126619 0.107535
v 0.125000 -0.125000 0.015625
v 0.125000 -0.125000 0.078125
v 0.125000 -0.125000 0.046875
v 0.110147 -0.126137 0.124077
v 0.044072 -0.012130 0.123734
v -0.125000 0.000000 0.125000
v 0.128834 -0.011209 -0.003941
v 0.011288 -0.132745 -0.006915
v 0.006234 0.121548 0.003771
v 0.065391 0.122205 -0.057750
v -0.062500 0.125000 0.062500
v 0.000071 -0.000071 -0.000071
v -0.060119 -0.066629 0.060098
vt 0.480060 0.701010
vt 0.514708 0.929866
vt 0.384808 0.819232
vt 0.640506 0.287856
vt 0.520892 0.290382
vt 0.560740 0.157642
vt 0.461904 0.350409
vt 0.400501 0.292209
vt 0.650207 0.531807
vt 0.588492 0.469476
vt 0.398598 0.172346
vt 0.499146 0.044246
vt 0.280596 0.965498
vt 0.247141 0.722821
vt 0.423360 0.706990
vt 0.337498 0.486877
vt 0.241737 0.496177
vt 0.318100 0.378771
vt 0.362388 0.600900
vt 0.442308 0.497313
vt 0.633926 0.045358
vt 0.622263 0.047143
vt 0.582546 0.046688
vt 0.243704 0.583403
vt 0.241737 0.670135
vt 0.354562 0.712194
vt 0.326528 0.714897
vt 0.526958 0.410298
vt 0.413450 0.034502
vt 0.242996 0.711447
vt 0.261011 0.722166
vt 0.306360 0.717531
vt 0.290574 0.719735
vt 0.275051 0.721914
vn 0.999499 0.000000 -0.031651
vn 0.000000 -0.009228 0.999957
vn 0.000000 1.000000 0.000000
vn -0.748341 0.000000 -0.663314
vn -0.001129 -0.119314 0.992856
vn 0.006984 -0.006984 0.999951
vn 0.999604 0.028134 0.000000
vn 0.999010 -0.012340 0.042738
vn 0.999628 -0.005187 -0.026780
vn -0.697094 0.019333 -0.716719
vn -0.719276 -0.025001 -0.694275
vn 0.008582 -0.014292 0.999861
vn 0.237649 0.140621 0.961119
vn -0.149253 -0.083545 0.985263
vn 0.120789 -0.991568 0.046938
vn 0.039912 -0.998837 0.027043
vn -0.691958 0.029381 -0.721339
vn 0.039999 -0.998835 -0.026993
vn 0.063714 -0.997739 0.021404
vn 0.067953 -0.997689 0.000000
vn 0.059503 -0.998067 0.017917
vn 0.027062 0.999267 -0.027062
vn 0.000000 0.999595 -0.028464
vn -0.046833 0.998903 0.000000
vn -0.020167 0.999759 -0.008711
vn -0.707107 0.000000 -0.707107
vn -0.646903 0.056807 -0.760453
vn -0.719907 0.058333 -0.691614
vn -0.092967 -0.071664 0.993087
vn 0.000000 0.000000 1.000000
vn 0.999323 -0.030011 0.021263
vn -0.707107 0.000221 -0.707107
vn -0.682968 0.002725 -0.730443
vn -0.694741 -0.021654 -0.718934
vn -0.047943 -0.157036 0.986429
vn -0.177047 -0.977909 -0.111125
vn 0.015998 -0.999001 0.041715
vn 0.003041 -0.999642 -0.026592
vn 0.666973 -0.745082 0.000000
vn 0.666976 -0.745079 0.000000
vn 0.999433 -0.033671 0.000000
vn 0.999433 -0.033670 0.000000
vn 0.986411 0.086620 0.139605
vn 0.995593 0.035265 0.086901
s off
f 2/1/1 5/2/1 20/3/1
f 6/4/2 8/5/2 18/6/2
f 8/5/3 24/7/3 4/8/3
f 5/9/4 2/1/4 23/10/4
f 18/6/5 19/11/5 7/12/5
f 18/6/6 8/5/6 19/11/6
f 5/2/7 6/13/7 20/3/7
f 6/13/8 3/14/8 20/3/8
f 10/15/9 2/1/9 20/3/9
f 26/16/10 1/17/10 19/18/10
f 2/1/11 21/19/11 25/20/11
f 3/21/12 6/4/12 18/6/12
f 17/22/13 3/21/13 18/6/13
f 9/23/14 17/22/14 18/6/14
f 1/17/15 21/19/15 7/24/15
f 7/24/16 21/19/16 9/25/16
f 2/1/17 25/20/17 23/10/17
f 2/1/18 10/15/18 21/19/18
f 10/15/19 14/26/19 21/19/19
f 14/26/20 16/27/20 21/19/20
f 9/25/21 21/19/21 16/27/21
f 8/5/22 22/28/22 24/7/22
f 8/5/23 6/4/23 22/28/23
f 6/4/24 5/9/24 23/10/24
f 22/28/25 6/4/25 23/10/25
f 24/7/26 25/20/26 4/8/26
f 22/28/27 25/20/27 24/7/27
f 22/28/28 23/10/28 25/20/28
f 9/23/29 18/6/29 7/12/29
f 8/5/30 4/8/30 19/11/30
f 14/26/31 10/15/31 20/3/31
f 25/20/32 26/16/32 19/18/32
f 4/8/26 25/20/26 19/18/26
f 21/19/33 1/17/33 26/16/33
f 25/20/34 21/19/34 26/16/34
f 19/11/35 1/29/35 7/12/35
f 3/14/36 17/30/36 13/31/36
f 17/30/37 9/25/37 13/31/37
f 9/25/38 16/27/38 13/31/38
f 16/27/39 11/32/39 13/31/39
f 11/32/39 15/33/39 13/31/39
f 15/33/40 12/34/40 13/31/40
f 16/27/41 14/26/41 20/3/41
f 11/32/41 16/27/41 20/3/41
f 15/33/42 11/32/42 20/3/42
f 12/34/41 15/33/41 20/3/41
f 13/31/43 12/34/43 20/3/43
f 3/14/44 13/31/44 20/3/44
