# Blender v2.69 (sub 0) OBJ File: 'prismirregular.blend'
# www.blender.org
o Cube_Cube.001
v -0.106629 -0.141892 0.103304
v 0.125000 -0.125000 -0.125000
v 0.122029 -0.127985 0.121409
v -0.125000 0.125000 0.125000
v 0.125000 0.125000 -0.125000
v 0.125000 0.125000 0.125000
v -0.014520 -0.110949 0.110733
v 0.000000 0.125000 0.125000
v 0.069156 -0.127056 0.117789
v 0.135744 -0.106938 -0.063986
v 0.125000 -0.125000 0.062500
v 0.125000 -0.125000 0.093750
v 0.126484 -0.121873 0.029085
v 0.123191 -0.126619 0.107535
v 0.125000 -0.125000 0.015625
v 0.125000 -0.125000 0.078125
v 0.125000 -0.125000 0.046875
v 0.114017 -0.116520 0.123818
v 0.048536 -0.006747 0.103819
v -0.125000 0.000000 0.125000
v 0.103479 -0.006849 -0.007044
v 0.029550 -0.127576 0.012087
v 0.097078 -0.126028 0.074520
v 0.065754 -0.128761 0.099649
v 0.111039 -0.125514 0.052885
v 0.031175 -0.127733 0.040754
v 0.009317 0.110664 0.011370
v 0.071817 0.110664 -0.051130
v -0.062500 0.125000 0.062500
v 0.000071 -0.000071 -0.000071
v 0.048464 -0.128247 0.070202
v -0.075017 -0.067600 0.049861
vt 0.295499 0.722665
vt 0.283568 0.999929
vt 0.158160 0.845167
vt 0.481330 0.275522
vt 0.358764 0.270379
vt 0.414112 0.143272
vt 0.013484 0.697343
vt 0.010920 0.682177
vt 0.030162 0.698583
vt 0.292375 0.324394
vt 0.235212 0.259861
vt 0.496046 0.546883
vt 0.260108 0.481311
vt 0.244869 0.138162
vt 0.273848 0.000070
vt 0.000070 0.989833
vt 0.226715 0.731436
vt 0.099362 0.687094
vt 0.074184 0.669176
vt 0.118556 0.596261
vt 0.151945 0.594728
vt 0.039283 0.543318
vt 0.048285 0.445988
vt 0.049196 0.631273
vt 0.083476 0.613977
vt 0.144109 0.451687
vt 0.143345 0.339671
vt 0.496046 0.031327
vt 0.487227 0.041841
vt 0.443880 0.028362
vt 0.107136 0.705080
vt 0.121635 0.703167
vt 0.085696 0.705117
vt 0.066757 0.703338
vt 0.047733 0.701805
vt 0.028878 0.633374
vt 0.354354 0.395806
vt 0.426567 0.474898
vt 0.360951 0.038036
vt 0.136850 0.706011
vn 0.983760 0.000000 0.179489
vn 0.000000 -0.158730 0.987322
vn -0.825430 -0.550850 -0.123408
vn 0.000000 1.000000 0.000000
vn -0.707107 0.000000 -0.707107
vn 0.114839 -0.135601 0.984086
vn 0.986939 -0.161094 0.000000
vn 0.988389 -0.009457 -0.151649
vn 0.855987 0.434942 -0.279487
vn 0.028574 -0.999578 -0.005312
vn 0.285046 -0.916163 0.281769
vn 0.331616 -0.918910 0.213625
vn 0.049667 -0.997679 -0.046577
vn -0.843399 -0.027150 -0.536601
vn -0.795178 -0.237061 -0.558116
vn -0.249593 -0.010812 0.968291
vn 0.821256 0.528885 0.214055
vn -0.152974 0.088077 0.984297
vn -0.039618 -0.983563 -0.176167
vn 0.036798 -0.999323 0.000000
vn 0.059967 -0.997630 -0.033733
vn 0.114654 -0.813985 0.569459
vn 0.071085 -0.994250 0.080086
vn -0.014459 -0.992847 -0.118518
vn 0.115051 0.986674 -0.115052
vn 0.000000 0.992135 -0.125173
vn -0.260272 0.965535 0.000000
vn -0.062275 0.996114 -0.062275
vn -0.557447 0.131237 -0.819774
vn -0.804176 0.279037 -0.524823
vn -0.701017 0.130956 -0.701017
vn -0.063617 0.104345 0.992504
vn -0.126838 0.141888 0.981723
vn 0.121155 0.000000 0.992634
vn 0.961680 0.209178 0.177245
vn 0.978188 0.150760 -0.142893
vn 0.965346 0.231136 0.121174
vn 0.983812 0.179202 0.000000
vn 0.983812 0.179201 0.000000
vn 0.983813 0.179201 0.000000
vn 0.938403 0.306706 0.159157
vn 0.959943 0.259379 0.105981
vn -0.197887 -0.971775 0.128427
vn -0.202095 -0.974077 0.101649
vn -0.326619 -0.945062 0.013376
vn 0.034367 -0.975631 -0.216709
vn 0.028842 -0.999559 -0.007079
vn 0.076277 -0.991833 -0.102218
vn 0.017986 -0.974347 0.224332
vn -0.629930 0.134914 -0.764844
vn -0.832614 0.000000 -0.553853
vn -0.492736 -0.360184 -0.792136
vn -0.425087 -0.182809 -0.886500
s off
f 2/1/1 5/2/1 21/3/1
f 6/4/2 8/5/2 19/6/2
f 3/7/3 18/8/3 14/9/3
f 8/5/4 29/10/4 4/11/4
f 5/12/5 2/1/5 30/13/5
f 19/6/6 20/14/6 1/15/6
f 19/6/2 8/5/2 4/11/2
f 5/2/7 6/16/7 21/3/7
f 6/16/8 3/7/8 21/3/8
f 10/17/9 2/1/9 21/3/9
f 25/18/10 23/19/10 26/20/10
f 22/21/11 7/22/11 1/23/11
f 10/17/12 22/21/12 2/1/12
f 23/19/13 24/24/13 31/25/13
f 32/26/14 1/23/14 20/27/14
f 2/1/15 22/21/15 30/13/15
f 3/28/16 6/4/16 19/6/16
f 18/29/17 3/28/17 19/6/17
f 9/30/18 18/29/18 19/6/18
f 17/31/19 25/18/19 13/32/19
f 11/33/20 25/18/20 17/31/20
f 11/33/20 23/19/20 25/18/20
f 16/34/20 23/19/20 11/33/20
f 12/35/20 23/19/20 16/34/20
f 12/35/21 24/24/21 23/19/21
f 18/8/22 9/36/22 14/9/22
f 9/36/23 24/24/23 12/35/23
f 14/9/24 9/36/24 12/35/24
f 8/5/25 27/37/25 29/10/25
f 8/5/26 6/4/26 27/37/26
f 6/4/27 5/12/27 28/38/27
f 27/37/28 6/4/28 28/38/28
f 29/10/5 30/13/5 4/11/5
f 27/37/29 30/13/29 29/10/29
f 28/38/30 5/12/30 30/13/30
f 27/37/31 28/38/31 30/13/31
f 9/30/32 19/6/32 7/39/32
f 19/6/33 1/15/33 7/39/33
f 20/14/34 19/6/34 4/11/34
f 15/40/35 10/17/35 21/3/35
f 13/32/36 15/40/36 21/3/36
f 17/31/37 13/32/37 21/3/37
f 11/33/38 17/31/38 21/3/38
f 16/34/39 11/33/39 21/3/39
f 12/35/40 16/34/40 21/3/40
f 14/9/41 12/35/41 21/3/41
f 3/7/42 14/9/42 21/3/42
f 24/24/43 9/36/43 7/22/43
f 31/25/44 24/24/44 7/22/44
f 26/20/44 31/25/44 7/22/44
f 22/21/45 26/20/45 7/22/45
f 15/40/46 22/21/46 10/17/46
f 25/18/47 26/20/47 22/21/47
f 13/32/48 25/18/48 22/21/48
f 15/40/49 13/32/49 22/21/49
f 26/20/13 23/19/13 31/25/13
f 30/13/50 32/26/50 4/11/50
f 32/26/51 20/27/51 4/11/51
f 22/21/52 1/23/52 32/26/52
f 30/13/53 22/21/53 32/26/53
